<?xml version="1.0" encoding="utf-8"?>
<!-- Svg Vector Icons : http://www.onlinewebfonts.com/icon -->
<!DOCTYPE svg PUBLIC "-//W3C//DTD SVG 1.1//EN" "http://www.w3.org/Graphics/SVG/1.1/DTD/svg11.dtd">
<svg version="1.1" xmlns="http://www.w3.org/2000/svg" xmlns:xlink="http://www.w3.org/1999/xlink" x="0px" y="0px" viewBox="0 0 256 256" enable-background="new 0 0 256 256" xml:space="preserve">
<metadata> Svg Vector Icons : http://www.onlinewebfonts.com/icon </metadata>
<g><g><g><path fill="#000000" d="M18.1,10.6c-2.4,0.8-6.8,5.3-7.5,7.8c-0.7,2.5-0.7,3.6,0,6c0.6,2.1,3.8,5.9,5.8,7l1.2,0.7v43.1v43.1l6.8,6.8l6.8,6.8h10.4h10.3V128v-3.8h-8.7h-8.7l-4.7-4.7l-4.6-4.6v-9.8v-9.7l3,2.9l3,3h10.3h10.3v-3.8v-3.8h-8.7h-8.7l-4.7-4.7l-4.6-4.6V58.2V31.9l1.3-0.7c3-1.6,6.2-6.5,6.3-9.5c0-2.9-1.1-5.2-3.8-7.9C25.5,10.2,22.3,9.3,18.1,10.6z M24.3,18.6c0.6,0.6,1,1.6,1,2.9s-0.3,2.2-1,2.9c-0.6,0.6-1.6,1-2.9,1c-2.5,0-3.8-1.3-3.8-3.8c0-2.5,1.3-3.8,3.8-3.8C22.7,17.6,23.7,17.9,24.3,18.6z"/><path fill="#000000" d="M143.8,10.6c-1.9,0.6-5.8,3.9-6.7,5.8l-0.7,1.2h-45h-45l-6.8,6.8l-6.8,6.8v20.7v20.7l6.8,6.8l6.8,6.8h2.8h2.7v-3.8c0-3.6,0-3.8-1.1-3.8c-0.7,0-2.6-1.5-5.7-4.7l-4.6-4.6V51.9V34.5l4.7-4.7l4.6-4.6h22h22v13.3v13.3h3.8h3.8V38.5V25.2h3.8h3.8v13.3v13.3h3.8h3.8V38.5V25.2h3.8h3.8v13.3v13.3h3.8h3.8v-5.7v-5.8l3.8,2.9l3.8,2.9V49v2.9h3.8h3.8v-4.8v-4.8l-7.6-5.7l-7.6-5.7v-2.9v-2.9h2.3c2,0,2.4,0.1,3,1.2c1.7,3.2,6.7,6.4,9.9,6.4c5.2,0,11.4-6.2,11.4-11.4c0-2.6-1.2-5-3.8-7.6C151.1,10.2,147.9,9.3,143.8,10.6z M149.9,18.6c0.6,0.6,1,1.6,1,2.9s-0.3,2.2-1,2.9c-0.6,0.6-1.6,1-2.9,1c-1.3,0-2.2-0.3-2.9-1c-0.6-0.6-1-1.6-1-2.9s0.3-2.2,1-2.9c0.6-0.6,1.6-1,2.9-1C148.3,17.6,149.3,17.9,149.9,18.6z"/><path fill="#000000" d="M166.1,18.7v8.7l-5.7,5.7l-5.7,5.7v6.5v6.6h3.8h3.8V47v-4.9l5.7-5.7l5.7-5.7V20.4V10h-3.8h-3.8V18.7z"/><path fill="#000000" d="M227.4,10.6c-2.4,0.8-6.8,5.3-7.5,7.8c-0.7,2.5-0.7,3.6,0,6c0.6,2.1,3.8,5.9,5.8,7L227,32v20.3v20.3l-4.4,2.9l-4.4,2.9h-7h-7v3.8v3.8h8.2h8.2l7-4.8l7-4.8V54.3V32l1.2-0.7c0.7-0.3,2.1-1.7,3.2-2.9c4.4-4.9,4.1-9.9-0.7-14.7C234.9,10.2,231.6,9.3,227.4,10.6z M233.6,18.6c0.6,0.6,1,1.6,1,2.9s-0.3,2.2-1,2.9c-0.6,0.6-1.6,1-2.9,1s-2.2-0.3-2.9-1c-0.6-0.6-1-1.6-1-2.9s0.3-2.2,1-2.9c0.6-0.6,1.6-1,2.9-1S233,17.9,233.6,18.6z"/><path fill="#000000" d="M56.2,33.5c-2.4,0.8-6.8,5.3-7.5,7.8c-1.2,4.2-0.3,7.1,3.2,10.7c4.8,4.8,9.8,5,14.7,0.7c1.2-1.1,2.5-2.5,2.9-3.2c0.7-1.2,0.9-1.2,4.9-1.2h4.2V50v1.9h3.8h3.8v-5.7v-5.7h-8h-8l-0.7-1.2c-1-2-4.9-5.2-7-5.8C60.2,32.7,58.4,32.7,56.2,33.5z M62.3,41.4c0.6,0.6,1,1.6,1,2.9c0,2.5-1.3,3.8-3.8,3.8s-3.8-1.3-3.8-3.8c0-2.5,1.3-3.8,3.8-3.8C60.8,40.5,61.7,40.8,62.3,41.4z"/><path fill="#000000" d="M204.7,33.5c-1.9,0.6-5.8,3.9-6.7,5.8l-0.7,1.2h-13.8h-13.7v5.7v5.7h3.8h3.8V50v-1.9h9.9h9.9l0.7,1.2c1.7,3.2,6.7,6.4,9.9,6.4c5.2,0,11.4-6.2,11.4-11.4c0-2.6-1.2-5-3.8-7.6C212,33.1,208.8,32.1,204.7,33.5z M210.8,41.4c0.6,0.6,1,1.6,1,2.9c0,1.3-0.3,2.2-1,2.9c-0.6,0.6-1.6,1-2.9,1s-2.2-0.3-2.9-1c-0.6-0.6-1-1.6-1-2.9s0.3-2.2,1-2.9c0.6-0.6,1.6-1,2.9-1S210.2,40.8,210.8,41.4z"/><path fill="#000000" d="M78.5,67.1v7.6h3.8h3.8v-7.6v-7.6h-3.8h-3.8V67.1z"/><path fill="#000000" d="M93.7,67.1v7.6h3.8h3.8v-7.6v-7.6h-3.8h-3.8V67.1z"/><path fill="#000000" d="M109,67.1v7.6h3.8h3.8v-7.6v-7.6h-3.8H109V67.1z"/><path fill="#000000" d="M124.2,67.1v7.6h3.8h3.8v-7.6v-7.6H128h-3.8V67.1z"/><path fill="#000000" d="M139.4,67.1v7.6h3.8h3.8v-7.6v-7.6h-3.8h-3.8V67.1z"/><path fill="#000000" d="M154.6,67.1v7.6h3.8h3.8v-7.6v-7.6h-3.8h-3.8V67.1z"/><path fill="#000000" d="M169.9,67.1v7.6h3.8h3.8v-7.6v-7.6h-3.8h-3.8V67.1z"/><path fill="#000000" d="M59.5,82.3v3.8h7.6h7.6v-3.8v-3.8h-7.6h-7.6L59.5,82.3L59.5,82.3z"/><path fill="#000000" d="M181.3,82.3v3.8h7.6h7.6v-3.8v-3.8h-7.6h-7.6V82.3z"/><path fill="#000000" d="M59.5,97.5v3.8h7.6h7.6v-3.8v-3.8h-7.6h-7.6L59.5,97.5L59.5,97.5z"/><path fill="#000000" d="M181.3,97.5v3.8h7.6h7.6v-3.8v-3.8h-7.6h-7.6V97.5z"/><path fill="#000000" d="M204.1,97.5v3.8h20.9H246v-3.8v-3.8h-20.9h-20.9L204.1,97.5L204.1,97.5z"/><path fill="#000000" d="M36.6,112.8v3.8h7.6h7.6v-3.8V109h-7.6h-7.6V112.8z"/><path fill="#000000" d="M59.5,112.8v3.8h7.6h7.6v-3.8V109h-7.6h-7.6L59.5,112.8L59.5,112.8z"/><path fill="#000000" d="M181.3,112.8v3.8h7.6h7.6v-3.8V109h-7.6h-7.6V112.8z"/><path fill="#000000" d="M204.1,112.8v3.8h20.9H246v-3.8V109h-20.9h-20.9L204.1,112.8L204.1,112.8z"/><path fill="#000000" d="M59.5,128v3.8h7.6h7.6V128v-3.8h-7.6h-7.6L59.5,128L59.5,128z"/><path fill="#000000" d="M181.3,128v3.8h7.6h7.6V128v-3.8h-7.6h-7.6V128z"/><path fill="#000000" d="M204.1,128v3.8h10.4h10.4l3.8,5.7l3.8,5.7h6.8h6.8v-3.8v-3.8h-4.7h-4.7l-3.8-5.6l-3.8-5.6l-12.5-0.1l-12.5-0.1V128L204.1,128z"/><path fill="#000000" d="M10,143.2v3.8h20.9h20.9v-3.8v-3.8H30.9H10V143.2z"/><path fill="#000000" d="M59.5,143.2v3.8h7.6h7.6v-3.8v-3.8h-7.6h-7.6L59.5,143.2L59.5,143.2z"/><path fill="#000000" d="M181.3,143.2v3.8h7.6h7.6v-3.8v-3.8h-7.6h-7.6V143.2z"/><path fill="#000000" d="M204.1,143.2v3.8h7.6h7.6v-3.8v-3.8h-7.6h-7.6V143.2L204.1,143.2z"/><path fill="#000000" d="M24.4,161.4l-6.8,6.8V196v27.8l-2,1.3c-4.1,2.8-6.2,7.5-5.2,11.6c1,3.9,4.9,7.8,8.8,8.8c4.1,1.1,8.3-0.8,11.5-5.2l1.4-2h20.2l20.2,0l6.8-6.8l6.8-6.8v-10.4v-10.3h-3.8h-3.8v8.7v8.7l-4.7,4.7l-4.6,4.6l-18.6,0H32.1l-1.4-2c-0.8-1.1-2.3-2.6-3.4-3.4l-2-1.4v-26.2l0-26.2l4.7-4.7l4.6-4.6h8.7h8.7v-3.8v-3.8H41.5H31.2L24.4,161.4z M24.3,231.7c0.6,0.6,1,1.6,1,2.9c0,2.5-1.3,3.8-3.8,3.8c-1.3,0-2.2-0.3-2.9-1c-1.3-1.3-1.3-4.4,0-5.7c0.6-0.6,1.6-1,2.9-1S23.7,231.1,24.3,231.7z"/><path fill="#000000" d="M59.5,158.5v3.8h7.6h7.6v-3.8v-3.8h-7.6h-7.6L59.5,158.5L59.5,158.5z"/><path fill="#000000" d="M181.3,158.5v3.8h7.6h7.6v-3.8v-3.8h-7.6h-7.6V158.5z"/><path fill="#000000" d="M204.1,158.5v3.8h20.9H246v-3.8v-3.8h-20.9h-20.9L204.1,158.5L204.1,158.5z"/><path fill="#000000" d="M39.6,176.7l-6.8,6.8v5.5v5.5l6.8,6.8c5.2,5.2,7,6.8,8,6.8c0.8,0,1.4,0.4,1.9,1.2c0.3,0.7,1.7,2.1,2.9,3.2c4.9,4.4,9.9,4.1,14.7-0.7c5.1-5,5.1-10.2,0-15.2c-5.1-5.1-10.1-5.1-15.4,0.1l-2.8,2.8l-4.2-4.2c-4-4-4.2-4.2-4.2-6.3c0-2.1,0.1-2.3,4.7-6.8c3.1-3.1,5-4.6,5.7-4.6c1,0,1-0.2,1-3.8v-3.8h-2.8h-2.7L39.6,176.7z M62.3,201.3c0.6,0.6,1,1.6,1,2.9c0,1.3-0.3,2.2-1,2.9c-0.6,0.6-1.6,1-2.9,1s-2.2-0.3-2.9-1c-0.6-0.6-1-1.6-1-2.9c0-1.3,0.3-2.2,1-2.9c0.6-0.6,1.6-1,2.9-1S61.7,200.7,62.3,201.3z"/><path fill="#000000" d="M59.5,173.7v3.8h7.6h7.6v-3.8v-3.8h-7.6h-7.6L59.5,173.7L59.5,173.7z"/><path fill="#000000" d="M181.3,173.7v3.8h7.6h7.6v-3.8v-3.8h-7.6h-7.6V173.7z"/><path fill="#000000" d="M204.1,173.7v3.8h4.9h4.9l4.7,4.7l4.6,4.6l0,3.3v3.3l-2,1.4c-7.2,5.3-7.4,12.8-0.3,18.4c4.7,3.8,10.8,2.7,15.2-3c3.9-4.9,2.6-11.1-3.3-15.4l-2-1.4v-5l0-5l-6.8-6.8l-6.8-6.8h-6.6h-6.5V173.7z M229.8,201.3c0.6,0.6,1,1.6,1,2.9c0,2.5-1.3,3.8-3.8,3.8s-3.8-1.3-3.8-3.8c0-2.5,1.3-3.8,3.8-3.8C228.3,200.3,229.2,200.7,229.8,201.3z"/><path fill="#000000" d="M78.5,188.9v7.6h3.8h3.8v-7.6v-7.6h-3.8h-3.8V188.9z"/><path fill="#000000" d="M93.7,188.9v7.6h3.8h3.8v-7.6v-7.6h-3.8h-3.8V188.9z"/><path fill="#000000" d="M109,188.9v7.6h3.8h3.8v-7.6v-7.6h-3.8H109V188.9z"/><path fill="#000000" d="M124.2,188.9v7.6h3.8h3.8v-7.6v-7.6H128h-3.8V188.9z"/><path fill="#000000" d="M139.4,188.9v7.6h3.8h3.8v-7.6v-7.6h-3.8h-3.8V188.9z"/><path fill="#000000" d="M154.6,188.9v7.6h3.8h3.8v-7.6v-7.6h-3.8h-3.8V188.9z"/><path fill="#000000" d="M169.9,188.9v7.6h3.8h3.8v-7.6v-7.6h-3.8h-3.8V188.9z"/><path fill="#000000" d="M93.7,214.5v10.3l6.8,6.8c5.2,5.2,7,6.8,8,6.8c0.8,0,1.4,0.4,1.9,1.2c1.7,3.2,6.7,6.4,9.9,6.4c3.9,0,9.7-4.4,10.8-8.4c1.2-4.2,0.3-7.1-3.2-10.7c-5.1-5.1-10.1-5.1-15.4,0.1l-2.8,2.8l-4.2-4.2l-4.2-4.2v-8.7v-8.7h-3.8h-3.8L93.7,214.5L93.7,214.5z M123.2,231.7c0.6,0.6,1,1.6,1,2.9c0,2.5-1.3,3.8-3.8,3.8c-2.5,0-3.8-1.3-3.8-3.8c0-2.5,1.3-3.8,3.8-3.8C121.7,230.8,122.6,231.1,123.2,231.7z"/><path fill="#000000" d="M109,209.8v5.7h11.4h11.4v-5.7v-5.7H128h-3.8v1.9v1.9h-3.8h-3.8V206v-1.9h-3.8H109L109,209.8L109,209.8z"/><path fill="#000000" d="M139.4,225.1V246h3.8h3.8v-20.9v-20.9h-3.8h-3.8V225.1z"/><path fill="#000000" d="M154.6,218.3v14.1l6.8,6.8l6.8,6.8h38.9H246v-3.8v-3.8h-37.3h-37.2l-4.7-4.7l-4.6-4.6v-12.5v-12.5h-3.8h-3.8V218.3L154.6,218.3z"/><path fill="#000000" d="M169.9,210.7v6.5l6.8,6.8l6.8,6.8h31.3H246V227v-3.8h-29.6h-29.6l-4.7-4.7l-4.6-4.6V209v-4.9h-3.8h-3.8L169.9,210.7L169.9,210.7z"/></g></g></g>
</svg>